<svg width="88.905" fill="rgba(146, 15, 205, 1)" height="48" version="1.1" viewBox="0 96 1778.1 960" xmlns="http://www.w3.org/2000/svg">
 <path d="m1265.1 872c-9.3333-8.6667-14-19.5-14-32.5s4.6667-24.167 14-33.5l183-183h-1234c-13.333 0-24.5-4.5-33.5-13.5s-13.5-20.167-13.5-33.5 4.5-24.5 13.5-33.5 20.167-13.5 33.5-13.5h1234l-183-184c-9.3333-8.6667-14-19.667-14-33s4.6667-24.667 14-34c9.3333-8.6667 20.5-13 33.5-13s24.167 4.3333 33.5 13l265 265c4.6667 4.6667 8.1667 9.8333 10.5 15.5s3.5 11.5 3.5 17.5-1.1667 11.833-3.5 17.5-5.8333 10.833-10.5 15.5l-265 265c-9.3333 9.3333-20.5 13.667-33.5 13s-24.167-5.6667-33.5-15z"/>
 <rect x="1624.6" y="336.33" width="2.6704" height="349.82" fill="#fff" opacity=".5" stroke-linecap="square" stroke-width="264.57" style="paint-order:markers stroke fill"/>
</svg>
