<svg width="71.333mm" height="27.022mm" version="1.1" viewBox="0 0 71.333 27.022" xmlns="http://www.w3.org/2000/svg">
 <defs>
  <clipPath id="clipPath990-9">
   <path d="m147.15 2946.9 35.818 3.1337c9.0924 0.7954 17.182-5.9927 17.978-15.085l3.1737-36.277c0.7954-9.0924-5.9928-17.182-15.085-17.978l-35.817-3.1334c-9.0924-0.7957-17.182 5.9924-17.978 15.085l-3.1737 36.277c-0.7957 9.0921 5.9924 17.182 15.085 17.977" clip-rule="evenodd"/>
  </clipPath>
  <linearGradient id="linearGradient996-6" x1="145.71" x2="190.47" y1="2887.3" y2="2940.3" gradientUnits="userSpaceOnUse">
   <stop stop-color="#9400d3" offset="0"/>
   <stop stop-color="#7100a1" offset="1"/>
  </linearGradient>
  <clipPath>
   <path d="m147.15 2946.9 35.818 3.1337c9.0924 0.7954 17.182-5.9927 17.978-15.085l3.1737-36.277c0.7954-9.0924-5.9928-17.182-15.085-17.978l-35.817-3.1334c-9.0924-0.7957-17.182 5.9924-17.978 15.085l-3.1737 36.277c-0.7957 9.0921 5.9924 17.182 15.085 17.977" clip-rule="evenodd"/>
  </clipPath>
 </defs>
 <g transform="translate(-53.557 -80.67)">
  <g transform="matrix(.16359 -.014312 -.014312 -.16359 7.6959 1122.1)">
   <path d="m866.67 6279.1h77.239c19.607 0 35.648-16.042 35.649-35.649l-3e-4 -78.229c-3e-4 -19.607-16.042-35.648-35.649-35.649l-77.239 5e-4c-19.608-5e-4 -35.649 16.041-35.649 35.649l3e-4 78.229c-5e-4 19.607 16.041 35.649 35.649 35.649z" fill="none" stroke="#fff" stroke-miterlimit="22.926" stroke-width="8.5927"/>
  </g>
  <g transform="matrix(.35278 0 0 -.35278 7.6959 1122.1)">
   <g clip-path="url(#clipPath990-9)">
    <path d="m147.15 2946.9 35.818 3.1337c9.0924 0.7954 17.182-5.9927 17.978-15.085l3.1737-36.277c0.7954-9.0924-5.9928-17.182-15.085-17.978l-35.817-3.1334c-9.0924-0.7957-17.182 5.9924-17.978 15.085l-3.1737 36.277c-0.7957 9.0921 5.9924 17.182 15.085 17.977" fill="url(#linearGradient996-6)" fill-rule="evenodd"/>
   </g>
  </g>
  <g>
   <path d="m62.949 99.902c-0.24052-0.34502-0.15582-0.81993 0.1892-1.0604 0.34509-0.24059 0.81989-0.15589 1.0605 0.18909 0.3791 0.54151 0.88822 0.96121 1.4672 1.2312h0.003206c0.57693 0.26899 1.226 0.38858 1.8873 0.33069 0.66238-0.0579 1.2811-0.2879 1.802-0.65218h-7.05e-4c0.25922-0.1815 0.49502-0.3955 0.7009-0.6374l-0.05719 0.0053c-0.4191 0.03828-0.79001-0.2704-0.82829-0.6895-0.03831-0.4191 0.27037-0.7899 0.68947-0.82822l1.7997-0.16528c0.4191-0.03831 0.78987 0.2703 0.82818 0.6894l0.17441 1.9043c0.03828 0.4191-0.2704 0.79001-0.6895 0.82829-0.41381 0.0378-0.78059-0.26268-0.82659-0.67381-0.2727 0.3084-0.57972 0.58212-0.91391 0.81612h-0.0032c-0.74232 0.5196-1.6154 0.84712-2.5422 0.92822-0.92869 0.0812-1.8464-0.0896-2.6675-0.47251h7.05e-4c-0.81809-0.38188-1.5376-0.97539-2.0735-1.7407" fill="#fddc00"/>
   <path d="m57.962 90.919c0.2105-0.01834 0.39603 0.1373 0.41441 0.3477 0.01842 0.2105-0.1373 0.39599-0.3477 0.41451l-1.055 0.09229c-0.2105 0.01834-0.39603-0.1373-0.41441-0.3478-0.01841-0.2104 0.1373-0.39599 0.3477-0.41441zm3.263-3.3943c0.2105-0.01834 0.39599 0.1373 0.41441 0.34773 0.01838 0.21047-0.1373 0.39599-0.3477 0.41437l-1.707 0.1494c-0.2105 0.01834-0.39599-0.1373-0.41437-0.3478-0.01852-0.2104 0.1372-0.39599 0.3477-0.41437zm-0.91479 1.6344c0.2104-0.01835 0.39599 0.1373 0.41437 0.3478 0.01841 0.2104-0.1373 0.39599-0.3477 0.41441l-2.762 0.24158c-0.21047 0.01834-0.39599-0.1373-0.41437-0.3477-0.01842-0.2104 0.1373-0.39599 0.3477-0.41441z" fill="#fefefe"/>
   <path d="m61.641 90.46c0.22867-1.1002 0.79777-2.0671 1.5893-2.7923 0.82818-0.7589 1.8989-1.2519 3.0765-1.3549 1.1776-0.10308 2.3177 0.1965 3.265 0.8001 0.9054 0.57679 1.6338 1.4301 2.0501 2.4739 0.78228 0.05479 1.505 0.36029 2.0795 0.8424 0.71321 0.59838 1.1982 1.469 1.2857 2.4696 0.08759 1.0006-0.2389 1.9421-0.83728 2.6553-0.59852 0.71321-1.469 1.1982-2.4696 1.2858-1.0006 0.08752-1.9421-0.2389-2.6554-0.83739-0.49618-0.41642-0.88191-0.9646-1.1002-1.5966l-1.8057 0.15801c-0.1052 0.66029-0.38978 1.2671-0.8062 1.7634-0.59849 0.71321-1.469 1.1982-2.4696 1.2857-1.0006 0.08749-1.9421-0.2389-2.6554-0.83732-0.71321-0.59849-1.1981-1.469-1.2857-2.4696-0.08752-1.0007 0.2389-1.9422 0.83728-2.6554 0.48221-0.5745 1.1407-1.0008 1.9017-1.1907zm6.0986 2.4262c0.0678-0.75512 0.36932-1.4515 0.83682-2.0086 0.38957-0.46418 0.8944-0.8316 1.4752-1.0558-0.3047-0.5897-0.75628-1.0752-1.2969-1.4196-0.66989-0.42668-1.4779-0.63839-2.3146-0.56519-0.83661 0.0732-1.5956 0.42189-2.1812 0.9585-0.47262 0.4331-0.83291 0.98961-1.0307 1.6232 0.61101 0.12002 1.1719 0.39409 1.6361 0.78359 0.55711 0.4675 0.97501 1.101 1.1729 1.8328zm4.9785-1.2851c-0.41321-0.34671-0.95871-0.5358-1.5387-0.485-0.5799 0.05069-1.0844 0.33168-1.4311 0.74478-0.3466 0.4131-0.53569 0.95871-0.485 1.5387 0.05069 0.5799 0.33168 1.0843 0.74478 1.431 0.41321 0.34668 0.95882 0.5358 1.5387 0.485 0.58-0.05069 1.0844-0.33172 1.4311-0.74482 0.34657-0.4131 0.53569-0.95867 0.485-1.5387-0.05073-0.57993-0.33172-1.0844-0.74482-1.431zm-8.8371 0.77308c-0.4131-0.34657-0.95871-0.53569-1.5387-0.485-0.5799 0.05073-1.0844 0.33172-1.4311 0.74482-0.3466 0.41321-0.53569 0.95871-0.485 1.5387 0.0508 0.5799 0.33172 1.0844 0.74493 1.4311 0.4131 0.3466 0.95867 0.53569 1.5386 0.485 0.58-0.0508 1.0844-0.33168 1.4311-0.74478 0.3466-0.41321 0.53569-0.95882 0.485-1.5387-0.05069-0.58-0.33168-1.0844-0.74478-1.4311" fill="#fefefe"/>
  </g>
  <g transform="matrix(.35278 0 0 -.35278 7.6959 1122.1)">
   <path transform="matrix(.75 0 0 -.75 130 2952.1)" d="m190.66 34.562c-1.0109 0-1.8757 0.35814-2.5918 1.0742-0.71608 0.71608-1.0742 1.5789-1.0742 2.5898 0 1.0531 0.35814 1.9512 1.0742 2.6953 0.73012 0.73012 1.6078 1.0957 2.6328 1.0957 0.9969 0 1.8542-0.35814 2.5703-1.0742 0.71608-0.73012 1.0742-1.6078 1.0742-2.6328 0-1.039-0.36559-1.9222-1.0957-2.6523-0.71608-0.73012-1.5789-1.0957-2.5898-1.0957zm72.414 0.58984v22.641h5.8125v-22.641h-5.8125zm-145.74 0.7793 10.973 30.98h5.6855l11.162-30.98h-6.0644l-7.8984 22.008-7.793-22.008h-6.0644zm85.078 0-5.3496 30.98h5.75l3.3906-19.566 6.5078 19.566h5.2031l6.5918-19.566 3.3281 19.566h5.6856l-5.2227-30.98h-5.6856l-7.2676 21.609-7.1602-21.609h-5.7715zm-47.846 7.4766c-2.9907 0-5.6387 1.0392-7.9414 3.1172-2.6256 2.3869-3.9375 5.3708-3.9375 8.9512 0 3.3417 1.1579 6.1845 3.4746 8.5293 2.3308 2.3308 5.1383 3.4961 8.4238 3.4961 2.2325 0 4.2755-0.52702 6.1289-1.5801 1.8534-1.0671 3.3138-2.5404 4.3809-4.4219 1.0811-1.8815 1.623-3.9041 1.623-6.0664 0-2.1482-0.53447-4.1486-1.6016-6.002-1.0671-1.8534-2.5553-3.3212-4.4648-4.4023-1.8955-1.0811-3.9236-1.6211-6.0859-1.6211zm92.643 0c-3.3979 0-6.2258 1.1579-8.4863 3.4746-2.2465 2.3027-3.3711 5.203-3.3711 8.6992 0 3.4119 1.132 6.2547 3.3926 8.5293 2.2606 2.2606 5.1868 3.3906 8.7812 3.3906 2.3167 0 4.317-0.40633 6.002-1.2207 1.6849-0.82841 3.1323-2.0995 4.3398-3.8125l-4.8438-2.2754c-1.5445 1.5024-3.3908 2.2539-5.5391 2.2539-1.7972 0-3.2799-0.47686-4.4453-1.4316-1.1514-0.96882-1.8602-2.2677-2.127-3.8965h18.471l0.02148-1.0957c0-3.791-1.13-6.8379-3.3906-9.1406-2.2606-2.3167-5.1962-3.4746-8.8047-3.4746zm-79.686 0.58984v4.8652h8.7832l-10.363 18.049h18.576v-4.8652h-9.7305l10.32-18.049h-17.586zm20.248 0v22.914h5.7715v-22.914h-5.7715zm59.713 4.2754c1.4743 0 2.7658 0.40084 3.875 1.2012 1.1233 0.80033 1.8748 1.8375 2.2539 3.1152h-12.447c0.64588-1.4181 1.3473-2.4071 2.1055-2.9688 1.2075-0.89861 2.6122-1.3477 4.2129-1.3477zm-92.834 0.54687c1.8253 0 3.3209 0.61793 4.4863 1.8535 1.1794 1.2216 1.7676 2.8155 1.7676 4.7812s-0.59559 3.5746-1.7891 4.8242-2.6891 1.873-4.4863 1.873-3.2854-0.61793-4.4648-1.8535c-1.1654-1.2356-1.748-2.85-1.748-4.8438 0-1.9376 0.59011-3.5242 1.7695-4.7598 1.1935-1.2496 2.6817-1.875 4.4648-1.875zm111.33 11.479c-0.9969 0-1.8448 0.35069-2.5469 1.0527-0.70205 0.70204-1.0547 1.5519-1.0547 2.5488s0.35264 1.8468 1.0547 2.5488c0.70204 0.70204 1.55 1.0527 2.5469 1.0527s1.8468-0.35069 2.5488-1.0527c0.71608-0.71608 1.0742-1.566 1.0742-2.5488 0-0.9969-0.35814-1.8468-1.0742-2.5488-0.70204-0.70204-1.5519-1.0527-2.5488-1.0527z" fill="#fff"/>
  </g>
 </g>
</svg>
