<svg width="71.333mm" height="27.022mm" version="1.1" viewBox="0 0 71.333 27.022" xmlns="http://www.w3.org/2000/svg">
 <defs>
  <clipPath id="clipPath990-9">
   <path d="m147.15 2946.9 35.818 3.1337c9.0924 0.7954 17.182-5.9927 17.978-15.085l3.1737-36.277c0.7954-9.0924-5.9928-17.182-15.085-17.978l-35.817-3.1334c-9.0924-0.7957-17.182 5.9924-17.978 15.085l-3.1737 36.277c-0.7957 9.0921 5.9924 17.182 15.085 17.977" clip-rule="evenodd"/>
  </clipPath>
  <linearGradient id="linearGradient996-6" x1="145.71" x2="190.47" y1="2887.3" y2="2940.3" gradientUnits="userSpaceOnUse">
   <stop stop-color="#9400d3" offset="0"/>
   <stop stop-color="#7100a1" offset="1"/>
  </linearGradient>
  <clipPath>
   <path d="m147.15 2946.9 35.818 3.1337c9.0924 0.7954 17.182-5.9927 17.978-15.085l3.1737-36.277c0.7954-9.0924-5.9928-17.182-15.085-17.978l-35.817-3.1334c-9.0924-0.7957-17.182 5.9924-17.978 15.085l-3.1737 36.277c-0.7957 9.0921 5.9924 17.182 15.085 17.977" clip-rule="evenodd"/>
  </clipPath>
 </defs>
 <g transform="translate(-53.557 -80.67)">
  <g transform="matrix(.35278 0 0 -.35278 7.6959 1122.1)">
   <g transform="matrix(.46372 .04057 -.04057 .46372 0 0)">
    <path d="m866.67 6279.1h77.239c19.607 0 35.648-16.042 35.649-35.649l-3e-4 -78.229c-3e-4 -19.607-16.042-35.648-35.649-35.649l-77.239 5e-4c-19.608-5e-4 -35.649 16.041-35.649 35.649l3e-4 78.229c-5e-4 19.607 16.041 35.649 35.649 35.649z" fill="none" stroke="#fff" stroke-miterlimit="22.926" stroke-width="8.5927"/>
   </g>
   <g clip-path="url(#clipPath990-9)">
    <path d="m147.15 2946.9 35.818 3.1337c9.0924 0.7954 17.182-5.9927 17.978-15.085l3.1737-36.277c0.7954-9.0924-5.9928-17.182-15.085-17.978l-35.817-3.1334c-9.0924-0.7957-17.182 5.9924-17.978 15.085l-3.1737 36.277c-0.7957 9.0921 5.9924 17.182 15.085 17.977" fill="url(#linearGradient996-6)" fill-rule="evenodd"/>
   </g>
   <g>
    <path d="m156.62 2897.6c-0.6818 0.978-0.4417 2.3242 0.5363 3.0059 0.9782 0.682 2.3241 0.4419 3.0061-0.536 1.0746-1.535 2.5178-2.7247 4.159-3.49h9e-3c1.6354-0.7625 3.4753-1.1015 5.3499-0.9374 1.8776 0.1641 3.6314 0.8161 5.108 1.8487h-2e-3c0.7348 0.5145 1.4032 1.1211 1.9868 1.8068l-0.1621-0.015c-1.188-0.1085-2.2394 0.7665-2.3479 1.9545-0.1086 1.188 0.7664 2.2391 1.9544 2.3477l5.1016 0.4685c1.188 0.1086 2.239-0.7662 2.3476-1.9542l0.4944-5.398c0.1085-1.188-0.7665-2.2394-1.9545-2.3479-1.173-0.1072-2.2127 0.7446-2.3431 1.91-0.773-0.8742-1.6433-1.6501-2.5906-2.3134h-9e-3c-2.1042-1.4729-4.5791-2.4013-7.2063-2.6312-2.6325-0.2301-5.2339 0.254-7.5614 1.3394h2e-3c-2.319 1.0825-4.3585 2.7649-5.8776 4.9342" fill="#fddc00"/>
    <path d="m142.49 2923.1c0.5967 0.052 1.1226-0.3892 1.1747-0.9856 0.0522-0.5967-0.3892-1.1225-0.9856-1.175l-2.9905-0.2616c-0.5967-0.052-1.1226 0.3892-1.1747 0.9859-0.0522 0.5964 0.3892 1.1225 0.9856 1.1747zm9.2495 9.6217c0.5967 0.052 1.1225-0.3892 1.1747-0.9857 0.0521-0.5966-0.3892-1.1225-0.9856-1.1746l-4.8388-0.4235c-0.5967-0.052-1.1225 0.3892-1.1746 0.9859-0.0525 0.5964 0.3889 1.1225 0.9856 1.1746zm-2.5931-4.633c0.5964 0.052 1.1225-0.3892 1.1746-0.9859 0.0522-0.5964-0.3892-1.1225-0.9856-1.1747l-7.8293-0.6848c-0.5966-0.052-1.1225 0.3892-1.1746 0.9856-0.0522 0.5964 0.3892 1.1225 0.9856 1.1747z" fill="#fefefe"/>
    <path d="m152.92 2924.4c0.6482 3.1187 2.2614 5.8595 4.5051 7.9152 2.3476 2.1512 5.3827 3.5487 8.7208 3.8407 3.338 0.2922 6.5698-0.557 9.2551-2.268 2.5665-1.635 4.6312-4.0538 5.8113-7.0127 2.2175-0.1553 4.2661-1.0213 5.8946-2.3879 2.0217-1.6962 3.3965-4.1641 3.6445-7.0004 0.2483-2.8363-0.6772-5.5052-2.3734-7.5268-1.6966-2.0217-4.1641-3.3965-7.0005-3.6448-2.8363-0.2481-5.5051 0.6772-7.5271 2.3737-1.4065 1.1804-2.4999 2.7343-3.1187 4.5258l-5.1185-0.4479c-0.2982-1.8717-1.1049-3.5917-2.2853-4.9986-1.6965-2.0217-4.1641-3.3965-7.0004-3.6445-2.8364-0.248-5.5052 0.6772-7.5271 2.3735-2.0217 1.6965-3.3962 4.1641-3.6445 7.0004-0.2481 2.8366 0.6772 5.5055 2.3734 7.5271 1.3669 1.6285 3.2335 2.8369 5.3907 3.3752zm17.287-6.8774c0.1922 2.1405 1.0469 4.1145 2.3721 5.6937 1.1043 1.3158 2.5353 2.3573 4.1816 2.9928-0.8637 1.6716-2.1438 3.0478-3.6762 4.0241-1.8989 1.2095-4.1893 1.8096-6.5611 1.6021-2.3715-0.2075-4.523-1.1959-6.1829-2.717-1.3397-1.2277-2.361-2.8052-2.9217-4.6012 1.732-0.3402 3.3219-1.1171 4.6378-2.2212 1.5792-1.3252 2.7638-3.121 3.3247-5.1954zm14.112 3.6428c-1.1713 0.9828-2.7176 1.5188-4.3617 1.3748-1.6438-0.1437-3.0738-0.9402-4.0566-2.1112-0.9825-1.171-1.5185-2.7176-1.3748-4.3617 0.1437-1.6438 0.9402-3.0736 2.1112-4.0564 1.1713-0.9827 2.7179-1.5188 4.3617-1.3748 1.6441 0.1437 3.0739 0.9403 4.0567 2.1113 0.9824 1.171 1.5185 2.7175 1.3748 4.3616-0.1438 1.6439-0.9403 3.0739-2.1113 4.0564zm-25.05-2.1914c-1.171 0.9824-2.7176 1.5185-4.3617 1.3748-1.6438-0.1438-3.0739-0.9403-4.0567-2.1113-0.9825-1.1713-1.5185-2.7176-1.3748-4.3617 0.144-1.6438 0.9403-3.0738 2.1116-4.0566 1.171-0.9825 2.7175-1.5185 4.3613-1.3748 1.6441 0.144 3.0739 0.9402 4.0567 2.1112 0.9825 1.1713 1.5185 2.7179 1.3748 4.3617-0.1437 1.6441-0.9402 3.0739-2.1112 4.0567" fill="#fefefe"/>
   </g>
   <g fill="#000000" font-family="'Century Gothic'" font-size="32.35px" font-weight="bold">
    <text transform="matrix(1 0 0 -1 217.12 2901.9)"><tspan x="0" y="0" fill="#000000">V</tspan></text>
    <text transform="matrix(1 0 0 -1 235.68 2901.9)"><tspan x="0" y="0" fill="#000000">o</tspan></text>
    <text transform="matrix(1 0 0 -1 254.21 2901.9)"><tspan x="0" y="0" fill="#000000">z</tspan></text>
    <text transform="matrix(1 0 0 -1 269.13 2901.9)"><tspan x="0" y="0" fill="#000000">i</tspan></text>
    <text transform="matrix(1 0 0 -1 276.92 2901.9)"><tspan x="0" y="0" fill="#000000">M</tspan></text>
   </g>
   <text transform="matrix(1 0 0 -1 305.14 2901.9)" fill="#000000" font-family="'Century Gothic'" font-size="32.35px" font-weight="bold"><tspan x="0" y="0" fill="#000000">e</tspan></text>
   <text transform="matrix(1 0 0 -1 324.97 2901.9)" fill="#000000" font-family="'Century Gothic'" font-size="32.35px" font-weight="bold"><tspan x="0" y="0" fill="#000000">!</tspan></text>
  </g>
 </g>
</svg>
