<?xml version="1.0" standalone="no"?>
<!DOCTYPE svg PUBLIC "-//W3C//DTD SVG 20010904//EN"
 "http://www.w3.org/TR/2001/REC-SVG-20010904/DTD/svg10.dtd">
<svg version="1.0" xmlns="http://www.w3.org/2000/svg"
 width="2560.000000pt" height="759.000000pt" viewBox="0 0 2560.000000 759.000000"
 preserveAspectRatio="xMidYMid meet">

<g transform="translate(0.000000,759.000000) scale(0.100000,-0.100000)"
fill="#000000" stroke="none">
<path d="M712 7400 c-125 -33 -225 -92 -327 -195 -104 -103 -162 -203 -195
-331 -20 -76 -20 -126 -20 -3077 0 -2737 1 -3006 16 -3066 35 -141 116 -276
223 -372 78 -71 152 -115 258 -153 l88 -31 12000 -3 c10847 -2 12008 -1 12080
13 215 42 407 190 505 390 83 166 75 -160 75 3225 l0 3015 -23 75 c-82 261
-272 446 -526 510 -79 20 -113 20 -12080 19 -11768 0 -12002 0 -12074 -19z
m4646 -1060 c10 -211 -84 -487 -234 -681 -142 -185 -372 -324 -594 -359 -106
-16 -137 -14 -144 13 -18 67 7 247 50 369 100 278 286 489 549 620 120 61 282
110 345 105 24 -2 25 -6 28 -67z m8122 -645 l0 -655 -100 0 -100 0 0 648 c0
357 3 652 7 655 3 4 48 7 100 7 l93 0 0 -655z m3250 152 c0 -277 3 -572 7
-656 l6 -152 -89 3 -89 3 -3 68 c-2 37 -7 67 -12 67 -6 0 -10 -5 -10 -10 0
-23 -84 -99 -133 -121 -73 -32 -210 -33 -280 -2 -69 32 -152 115 -186 187 -95
200 -59 470 81 609 75 75 132 100 239 105 109 5 173 -14 231 -69 23 -21 43
-39 45 -39 1 0 3 115 3 255 l0 255 95 0 95 0 0 -503z m4590 232 l0 -272 43 46
c24 27 67 57 100 73 51 23 68 26 140 22 127 -6 204 -55 253 -163 38 -83 44
-142 44 -451 l0 -294 -100 0 -100 0 0 280 c0 163 -5 300 -11 330 -41 192 -305
186 -359 -9 -5 -20 -10 -160 -10 -318 l0 -283 -100 0 -100 0 0 648 c0 357 3
652 7 655 3 4 48 7 100 7 l93 0 0 -271z m-12438 183 c120 -32 186 -68 259
-141 119 -119 166 -265 156 -481 -17 -354 -210 -554 -582 -600 -96 -13 -403
-8 -426 5 -5 4 -9 242 -9 611 0 486 3 606 13 610 36 13 190 22 342 19 133 -2
187 -7 247 -23z m11856 -324 l107 -3 3 -72 3 -73 -111 0 -110 0 0 -250 c0
-269 5 -301 51 -334 16 -11 44 -16 85 -16 l62 0 7 -66 c5 -40 4 -69 -3 -76 -5
-5 -40 -14 -78 -20 -153 -24 -266 36 -305 161 -7 22 -14 148 -16 319 l-5 282
-64 0 -65 0 3 73 3 72 63 3 62 3 0 79 0 79 38 11 c20 5 64 19 97 29 l60 19 3
-109 3 -108 107 -3z m2017 -9 c142 -52 225 -199 225 -395 l0 -94 -301 0 -301
0 7 -42 c15 -89 58 -154 129 -190 56 -30 215 -37 305 -14 34 9 68 16 76 16 7
0 17 -24 25 -62 14 -75 11 -79 -94 -103 -108 -25 -270 -23 -354 4 -123 40
-218 135 -258 258 -28 85 -25 275 5 357 72 200 231 305 436 288 28 -3 73 -13
100 -23z m-12583 -16 c154 -72 238 -221 238 -418 0 -254 -145 -435 -375 -468
-230 -33 -421 92 -481 316 -18 69 -18 209 1 280 41 156 132 257 280 310 39 13
74 17 160 15 99 -3 116 -6 177 -35z m2583 12 c58 -29 120 -97 147 -163 22 -55
23 -70 26 -389 l3 -333 -100 0 -100 0 -3 313 c-3 304 -4 313 -26 355 -52 98
-208 109 -289 21 -54 -59 -57 -82 -61 -396 l-4 -293 -94 0 -94 0 0 308 c0 169
-3 371 -7 450 l-6 142 85 0 c97 0 98 0 98 -93 l0 -48 53 54 c72 74 134 98 247
94 60 -2 97 -8 125 -22z m1648 -7 c79 -37 161 -117 196 -192 94 -199 54 -456
-91 -592 -165 -154 -455 -149 -607 11 -56 59 -82 105 -106 189 -25 84 -17 268
14 347 46 115 146 213 256 249 92 30 259 24 338 -12z m985 17 c106 -32 180
-122 202 -245 5 -30 10 -189 12 -353 l3 -297 -86 0 -86 0 -7 51 -7 51 -41 -37
c-83 -75 -203 -102 -314 -70 -47 13 -69 27 -110 69 -60 62 -79 117 -72 209 15
177 164 283 431 303 l87 7 0 31 c0 17 -9 50 -20 74 -25 56 -78 81 -171 82 -67
0 -192 -31 -204 -50 -16 -26 -24 -12 -60 107 -4 14 66 48 138 68 71 19 240 19
305 0z m2812 -21 c152 -72 240 -225 240 -419 0 -253 -146 -435 -375 -468 -226
-33 -424 94 -479 308 -20 74 -20 223 -2 292 40 151 133 253 272 302 49 18 78
21 169 19 99 -3 117 -7 175 -34z m1120 15 c92 -41 158 -132 179 -244 6 -34 11
-183 11 -352 l0 -293 -100 0 -100 0 0 288 c0 318 -7 366 -57 414 -51 48 -130
62 -196 34 -46 -19 -103 -88 -116 -141 -7 -27 -11 -152 -11 -319 l0 -276 -100
0 -100 0 0 450 0 450 84 0 84 0 7 -71 7 -70 34 40 c66 77 143 110 254 110 54
1 87 -5 120 -20z m-8507 -1 c2 -7 37 -155 76 -328 40 -173 76 -328 79 -344 6
-26 12 -14 35 80 15 60 61 219 101 354 l73 245 81 3 c70 2 81 0 86 -15 54
-183 158 -557 172 -618 l18 -80 13 65 c8 36 46 196 86 355 l73 290 97 3 c53 1
97 -1 97 -5 -1 -4 -63 -206 -139 -448 l-138 -440 -90 -3 -91 -3 -11 33 c-46
146 -137 462 -156 543 -12 55 -25 93 -28 85 -3 -8 -15 -58 -27 -110 -12 -52
-54 -196 -93 -320 l-72 -225 -92 -3 -91 -3 -11 33 c-16 51 -239 809 -246 841
l-7 27 100 0 c71 0 101 -4 105 -12z m-5363 -698 c225 -29 443 -126 611 -271
57 -50 169 -179 169 -195 0 -5 -15 -18 -33 -30 -130 -84 -286 -260 -365 -412
-209 -399 -136 -899 177 -1219 75 -78 187 -161 280 -210 82 -42 80 -31 24
-178 -64 -164 -160 -348 -271 -515 -176 -268 -271 -384 -386 -476 -127 -102
-239 -144 -381 -144 -121 0 -183 15 -362 86 -201 80 -273 96 -428 96 -143 0
-222 -15 -371 -72 -277 -108 -360 -128 -477 -117 -190 18 -371 158 -595 458
-224 301 -354 550 -467 894 -108 327 -139 517 -140 855 0 227 3 267 23 368
122 604 523 1007 1067 1073 174 21 289 -1 598 -118 164 -62 216 -77 274 -81
88 -6 116 1 343 88 188 72 258 95 360 115 78 16 247 18 350 5z m10889 -1085
c102 -23 241 -74 248 -92 5 -12 -80 -309 -91 -320 -2 -2 -35 10 -74 27 -129
55 -230 74 -392 75 -117 0 -156 -4 -200 -19 -111 -38 -175 -89 -222 -179 -19
-35 -23 -58 -23 -132 0 -81 3 -96 30 -143 59 -108 150 -169 435 -292 198 -86
287 -135 387 -215 122 -97 201 -216 238 -360 22 -87 20 -272 -5 -369 -66 -258
-275 -445 -576 -517 -237 -56 -604 -35 -811 47 -89 35 -155 74 -150 88 2 6 23
81 47 167 l43 156 86 -42 c260 -129 600 -153 788 -56 188 96 251 342 133 519
-63 94 -174 166 -390 252 -384 153 -582 328 -645 569 -19 75 -22 226 -5 308
55 268 295 478 613 539 99 19 434 12 536 -11z m-6579 -1256 c223 -688 406
-1257 408 -1265 3 -12 -32 -14 -212 -14 -119 0 -216 2 -216 5 0 2 -52 167
-115 365 -63 198 -115 363 -115 365 0 3 -186 5 -413 5 l-412 0 -111 -367 -111
-368 -211 -3 -211 -2 14 42 c8 24 188 583 400 1243 212 660 389 1210 395 1223
10 22 10 22 258 22 l248 0 404 -1251z m7830 766 l0 -225 220 0 220 0 0 -150 0
-150 -220 0 -221 0 3 -517 c3 -516 3 -518 26 -568 47 -101 103 -135 227 -135
44 0 96 4 117 9 l36 8 7 -101 c4 -55 5 -126 3 -156 l-3 -55 -50 -13 c-73 -20
-325 -28 -394 -12 -179 40 -289 151 -343 347 -21 75 -22 99 -26 636 l-3 557
-135 0 -134 0 0 150 0 150 135 0 135 0 0 168 0 169 183 56 c100 30 190 56 200
56 16 1 17 -16 17 -224z m-5863 -219 c200 -65 376 -242 462 -466 45 -116 62
-211 68 -380 12 -380 -100 -671 -331 -856 -125 -100 -260 -150 -431 -160 -197
-11 -362 42 -473 153 -32 32 -66 69 -75 83 -15 23 -16 -7 -16 -457 l-1 -483
-205 0 -205 0 0 1183 c0 650 -3 1226 -7 1280 l-6 97 180 0 181 0 7 -122 c10
-166 13 -173 53 -116 41 60 139 149 204 186 117 67 234 92 398 88 90 -3 133
-9 197 -30z m2021 18 c121 -24 230 -82 323 -171 130 -124 204 -255 252 -440
19 -78 22 -112 21 -308 0 -206 -2 -226 -27 -320 -85 -319 -297 -547 -577 -622
-90 -24 -301 -24 -390 1 -122 33 -224 103 -302 206 l-27 35 -1 -482 0 -483
-199 0 -199 0 -5 1248 c-3 686 -9 1262 -12 1280 l-7 32 180 0 180 0 6 -77 c14
-162 19 -203 25 -203 3 0 21 23 40 51 89 131 271 238 446 262 72 10 202 6 273
-9z m5666 -13 c235 -62 419 -214 526 -436 65 -135 90 -237 97 -407 11 -259
-37 -461 -152 -638 -173 -268 -465 -408 -810 -387 -394 24 -677 261 -783 657
-23 85 -25 114 -26 275 0 198 9 255 64 407 60 167 203 344 348 432 77 46 200
92 300 111 109 21 331 13 436 -14z m1930 23 c14 -5 16 -32 16 -195 l0 -189
-77 6 c-88 7 -172 -6 -243 -39 -65 -31 -146 -115 -181 -190 -56 -121 -59 -152
-59 -725 l0 -522 -202 2 -202 3 -1 875 c-1 481 -5 890 -9 908 l-8 32 181 0
181 0 0 -92 c0 -51 3 -131 7 -176 l6 -84 46 89 c75 146 196 251 332 287 55 15
185 21 213 10z m1232 -5 c288 -52 495 -278 565 -614 19 -89 27 -340 13 -392
l-6 -23 -604 0 -604 0 0 -42 c1 -157 92 -326 221 -408 99 -64 168 -82 330 -88
164 -5 295 11 425 52 47 15 81 21 84 16 14 -22 61 -263 53 -270 -18 -17 -158
-61 -265 -82 -95 -19 -145 -23 -313 -23 -175 0 -211 3 -290 23 -345 87 -573
346 -626 711 -18 130 -7 364 24 482 90 345 331 593 637 654 81 16 277 19 356
4z"/>
<path d="M16255 5789 c-48 -14 -102 -65 -132 -127 -26 -53 -28 -66 -28 -177 0
-111 2 -124 27 -171 93 -176 305 -179 390 -6 21 42 23 60 23 187 -1 123 -3
145 -22 180 -54 101 -153 145 -258 114z"/>
<path d="M8493 6123 c-10 -4 -13 -107 -13 -470 l0 -466 138 5 c108 4 149 10
193 27 178 68 266 202 276 421 6 119 -6 199 -41 275 -45 100 -133 170 -250
201 -49 13 -276 19 -303 7z"/>
<path d="M22536 5805 c-70 -25 -133 -105 -151 -192 l-7 -33 206 0 206 0 0 43
c-1 85 -60 165 -138 187 -48 13 -68 12 -116 -5z"/>
<path d="M9884 5785 c-97 -49 -137 -137 -138 -300 -1 -100 1 -115 27 -170 52
-110 111 -150 214 -143 71 4 100 21 150 87 89 116 89 346 0 462 -42 55 -83 79
-149 85 -44 5 -62 1 -104 -21z"/>
<path d="M14147 5800 c-51 -16 -95 -58 -129 -127 -28 -57 -33 -79 -36 -159 -6
-131 21 -217 87 -284 54 -54 89 -66 172 -58 68 7 115 46 159 132 30 60 35 80
38 161 6 131 -29 238 -96 298 -44 40 -131 56 -195 37z"/>
<path d="M15276 5479 c-78 -12 -145 -46 -173 -88 -27 -41 -31 -117 -8 -161 44
-84 194 -79 268 10 35 41 49 96 45 178 l-3 67 -35 2 c-19 0 -62 -3 -94 -8z"/>
<path d="M17935 5799 c-55 -21 -93 -58 -126 -124 -27 -55 -33 -79 -37 -159 -7
-132 20 -219 87 -286 54 -54 89 -66 171 -58 120 12 201 140 201 317 0 48 -7
109 -16 138 -18 61 -67 130 -112 156 -39 22 -127 31 -168 16z"/>
<path d="M9086 3790 c-3 -8 -30 -114 -60 -235 -44 -173 -150 -524 -260 -862
l-7 -23 335 0 c185 0 336 3 336 6 0 3 -52 166 -116 362 -63 197 -139 449 -169
562 -29 113 -55 198 -59 190z"/>
<path d="M11293 3140 c-116 -23 -253 -131 -306 -242 -47 -99 -57 -163 -57
-393 0 -152 4 -228 15 -274 48 -202 217 -340 417 -341 229 0 389 138 460 397
31 114 31 364 0 476 -76 276 -285 425 -529 377z"/>
<path d="M13375 3136 c-77 -19 -154 -63 -210 -120 -113 -116 -145 -230 -145
-511 0 -218 12 -294 62 -386 93 -176 272 -258 477 -219 165 31 293 167 353
375 20 70 23 102 23 250 0 187 -11 246 -66 363 -39 81 -132 181 -201 214 -96
47 -195 58 -293 34z"/>
<path d="M19025 3157 c-189 -63 -313 -248 -346 -519 -39 -322 82 -628 289
-730 63 -31 73 -33 177 -33 98 0 116 3 167 27 188 88 308 333 308 626 0 281
-113 518 -287 604 -60 29 -77 33 -167 35 -64 2 -116 -2 -141 -10z"/>
<path d="M22265 3177 c-148 -50 -265 -185 -310 -362 -8 -32 -15 -70 -15 -82
l0 -23 420 0 420 0 0 38 c0 57 -27 168 -54 228 -34 73 -114 156 -179 185 -64
28 -219 37 -282 16z"/>
</g>
</svg>
